<svg version="1.1" id="Layer_1" xmlns="http://www.w3.org/2000/svg" xmlns:xlink="http://www.w3.org/1999/xlink" x="0px" y="0px"
	 width="100%" viewBox="0 0 500 500" enable-background="new 0 0 500 500" xml:space="preserve">
<path fill="#010000" opacity="1.000000" stroke="none" 
	d="
M250.000000,501.000000 
	C168.000015,501.000000 86.500000,500.972473 5.000204,501.096039 
	C1.575989,501.101227 0.903036,500.423828 0.905301,497.000000 
	C1.013779,333.000092 1.013772,169.000122 0.905334,5.000240 
	C0.903070,1.576925 1.575814,0.903022 4.999883,0.905287 
	C168.999771,1.013774 332.999725,1.013761 496.999634,0.905353 
	C500.422668,0.903090 501.096985,1.575441 501.094727,4.999763 
	C500.986206,168.999649 500.986237,332.999603 501.094604,496.999512 
	C501.096893,500.422272 500.425476,501.101196 497.000275,501.096039 
	C414.833649,500.972656 332.666809,501.000000 250.000000,501.000000 
z"/>
<path fill="#DF4C46" opacity="1.000000" stroke="none" 
	d="
M302.516968,254.239349 
	C301.941803,253.402603 301.533478,252.810242 300.985443,251.703217 
	C300.650909,251.055893 300.456085,250.923233 300.030731,250.522491 
	C298.785950,250.700027 297.599426,250.270584 296.311584,250.999420 
	C295.885193,251.320038 295.764832,251.522156 295.370728,251.946930 
	C286.770355,253.850861 284.788177,252.920959 283.370850,246.347992 
	C283.267700,245.979156 283.012451,245.670197 282.829102,245.410812 
	C280.410065,242.070450 277.827942,239.893646 273.341583,241.762100 
	C271.620911,239.565765 274.660187,239.377380 274.971191,237.395340 
	C271.677460,237.044785 267.272766,238.484039 266.907593,232.424408 
	C265.293549,234.115616 266.055298,235.724976 265.432190,236.879745 
	C264.671417,238.289536 264.311310,240.297989 261.832886,238.578552 
	C263.731415,231.067978 263.588318,230.888107 256.637024,230.594254 
	C254.014435,230.483398 251.499268,229.821960 251.057388,226.726151 
	C250.648026,223.858017 250.770813,220.936981 253.934418,219.432907 
	C256.825714,218.058319 259.190277,219.434540 261.087830,221.411148 
	C266.103149,226.635559 267.888641,226.333145 270.633545,219.527359 
	C273.838165,211.581863 273.838196,211.581879 281.535675,214.884689 
	C287.509705,217.447968 287.583374,217.973526 282.859009,221.961655 
	C280.201752,224.204819 279.519592,226.768433 280.788666,230.315063 
	C282.352173,234.684509 285.610748,234.103745 288.791504,233.866623 
	C292.229370,233.610321 293.391541,231.005676 293.880066,228.030975 
	C294.040527,227.053940 293.936066,226.036377 294.010193,225.041626 
	C294.216156,222.277771 295.436554,221.419250 297.909546,223.028854 
	C298.467072,223.391724 298.990082,223.810013 299.559631,224.151672 
	C308.125916,229.290054 308.127136,229.288025 302.898132,237.785263 
	C299.635986,243.086319 300.450287,244.820312 306.592834,244.925293 
	C309.432922,244.973831 311.394928,245.875473 312.554199,248.457108 
	C313.648804,250.894775 313.050842,253.181641 311.294891,254.875565 
	C309.492401,256.614380 307.281494,258.057526 304.321228,255.867188 
	C303.504883,255.330643 303.043549,254.963943 302.516968,254.239349 
z"/>
<path fill="#EBB22B" opacity="1.000000" stroke="none" 
	d="
M201.582672,180.321716 
	C204.979813,179.469055 205.115295,177.093781 204.940231,174.701035 
	C204.819977,173.057541 204.266083,171.450150 204.067322,169.807114 
	C203.643585,166.304703 203.508316,163.159363 208.770081,163.797989 
	C210.997223,164.068314 213.360626,162.980652 215.648560,163.039246 
	C219.241135,163.131226 220.114273,164.854553 217.421875,167.951385 
	C214.878784,165.104782 212.241364,166.949081 209.893524,167.662430 
	C207.387772,168.423798 207.764923,170.728546 208.067856,172.706345 
	C208.501541,175.537964 208.201385,178.307098 207.510239,181.226318 
	C212.681107,183.026016 218.371597,180.144089 221.468842,182.583008 
	C217.846390,181.811935 213.271301,179.469559 212.725006,173.109055 
	C212.490036,170.373535 212.763779,167.640564 216.844543,167.839890 
	C215.899002,171.791000 215.925507,175.221771 219.485397,177.711594 
	C222.300507,179.680527 225.161362,179.428848 227.734528,177.315277 
	C230.983322,174.646759 230.412903,171.223175 229.186035,167.388123 
	C231.028610,165.552917 232.582535,166.487778 232.868210,168.308060 
	C233.278641,170.923172 237.228394,173.261169 233.691605,176.286560 
	C233.041306,176.842834 233.695251,177.191177 234.136719,177.186874 
	C236.779938,177.161118 238.110138,180.331970 241.242950,179.859482 
	C244.488403,179.609222 246.816498,177.783707 249.526154,177.072388 
	C251.521713,176.548508 253.459564,176.830505 255.719482,177.700806 
	C258.399078,178.968689 259.676331,180.822281 259.868195,183.786469 
	C259.763245,184.425034 259.689819,184.673447 259.430389,185.259781 
	C256.514099,189.498993 253.052887,191.369278 247.921478,189.447632 
	C247.354294,189.278244 247.129288,189.210907 246.572998,189.046005 
	C243.851456,188.301117 243.485870,189.801224 243.387177,191.618469 
	C243.264587,193.875732 243.504242,196.154816 242.878220,198.735535 
	C239.799026,203.853851 235.413681,201.801102 231.069031,201.238129 
	C230.534653,200.594727 230.420532,200.130737 230.557037,199.301254 
	C230.997833,198.574707 231.409454,198.314713 231.902603,198.182892 
	C229.093933,195.931381 228.841339,191.650986 225.066528,189.804871 
	C223.990860,189.366272 223.155930,189.321533 222.035828,189.184631 
	C221.173691,189.093536 220.608536,189.020828 219.792023,189.278275 
	C219.383896,189.500214 219.227646,189.603241 218.851471,189.878326 
	C218.200333,190.435089 217.900284,190.894699 217.793747,191.794037 
	C217.714600,192.558197 217.608902,192.994812 217.324585,193.757919 
	C216.653214,195.365723 216.689087,196.710022 216.829102,198.024292 
	C217.220078,201.694412 215.756790,202.880417 211.981049,202.952621 
	C204.727188,203.091324 204.069809,202.690826 205.032715,195.641098 
	C205.256775,194.000717 205.701385,192.385117 205.452408,190.701492 
	C204.854462,186.658157 202.370697,185.313766 198.727112,187.245300 
	C197.111969,188.101501 195.664932,189.482285 193.696381,188.653152 
	C191.065323,187.544983 188.918518,185.744293 189.700714,182.600388 
	C190.472656,179.497772 192.568008,177.997543 196.080505,178.726334 
	C197.901031,179.104065 199.389954,180.241409 201.582672,180.321716 
z"/>
<path fill="#E89A30" opacity="1.000000" stroke="none" 
	d="
M201.605408,180.076889 
	C199.782593,181.924744 197.708130,180.132690 195.868149,179.616043 
	C192.977386,178.804321 191.800171,180.437393 190.576401,182.143799 
	C189.291885,183.934891 190.678986,185.223770 191.886703,186.419067 
	C193.485275,188.001221 195.242447,188.801285 197.062363,186.880356 
	C199.199341,184.624786 201.488052,185.155075 203.908646,186.169785 
	C206.621140,187.306870 205.817276,189.715027 205.965591,191.773285 
	C206.025314,192.601822 206.017517,193.437485 205.999680,194.269028 
	C205.846741,201.402222 205.857117,201.176071 212.860794,201.583847 
	C215.600861,201.743408 216.214020,201.355331 215.461838,198.760620 
	C214.921387,196.896332 214.240448,194.887421 216.370758,193.082901 
	C218.154800,192.990601 217.252518,192.005508 217.184555,191.243347 
	C215.994675,189.403214 217.484970,189.425674 218.601089,188.991226 
	C220.746796,189.164658 222.529755,188.453644 224.655548,188.239716 
	C227.369461,188.603806 229.226883,190.510452 229.777954,192.439514 
	C230.808563,196.047272 232.959564,197.401398 236.898239,197.361557 
	C235.192444,199.673935 233.259445,198.754822 231.234985,199.000641 
	C230.002762,199.233093 229.288162,199.599014 228.792877,200.715317 
	C228.014084,203.759262 230.042343,203.362869 231.640518,203.641510 
	C235.254089,204.271500 238.825455,202.289230 242.651001,203.790298 
	C243.247116,207.674240 243.728836,211.292740 243.972229,214.927170 
	C244.233261,218.824966 242.777161,219.705643 239.255692,217.978912 
	C234.589218,215.690765 231.624512,216.359314 228.562256,220.622192 
	C228.289581,220.915573 228.145721,221.348923 227.947601,221.456604 
	C227.431992,221.765961 227.325912,222.050217 227.313202,222.684952 
	C224.976776,224.632309 222.447433,225.363464 219.436630,225.181396 
	C218.768967,223.542786 218.359085,222.135361 218.015686,220.358414 
	C220.610031,216.293930 217.873337,216.813446 215.313385,217.019531 
	C212.084091,217.029938 209.301270,216.449478 206.519058,218.574326 
	C204.608307,220.033630 202.723770,218.933914 202.955093,216.018402 
	C203.494858,209.214996 204.004150,202.409195 204.535721,195.605133 
	C204.651505,194.123245 204.989655,192.635071 204.912155,191.166321 
	C204.703247,187.207535 203.042252,186.247620 199.394852,187.910980 
	C197.750687,188.660782 196.239990,189.784912 194.285629,189.432770 
	C191.793076,188.983643 190.018158,187.429886 189.146515,185.212341 
	C188.285873,183.022797 189.193344,181.003464 190.849625,179.352310 
	C192.719299,177.488434 194.937683,177.293442 197.279495,178.092880 
	C198.662399,178.564987 199.619598,179.996689 201.605408,180.076889 
z"/>
<path fill="#E46935" opacity="1.000000" stroke="none" 
	d="
M259.142517,185.128586 
	C258.966400,182.669769 258.224548,180.814407 256.278625,179.160400 
	C253.408478,176.757217 250.796249,176.763641 247.754440,178.294662 
	C243.703125,180.333832 242.011612,179.247208 241.674835,174.741455 
	C241.412659,171.233612 241.903046,167.822037 243.810074,164.339691 
	C247.901489,163.981186 251.563034,165.338699 255.435287,165.019470 
	C260.117584,164.633438 260.803223,163.576447 258.650574,159.174728 
	C257.341217,156.497421 256.836334,153.811096 259.095123,151.374146 
	C260.998108,149.321060 263.389526,148.936264 265.902161,150.016678 
	C270.336273,151.923309 269.494263,155.445450 268.220428,158.807724 
	C266.286163,163.913284 266.854645,164.881897 272.344849,164.943466 
	C273.008759,164.950912 273.691467,164.855759 274.333374,164.977432 
	C277.106018,165.502899 280.871368,162.286789 282.229919,164.705933 
	C283.948120,167.765564 283.746948,172.013077 283.959961,175.771683 
	C284.117950,178.559082 282.744324,179.703781 279.828857,178.334946 
	C273.540985,175.382797 270.916351,176.334763 267.933014,182.689056 
	C266.371796,188.723831 262.623108,186.150711 259.142517,185.128586 
z"/>
<path fill="#E46F33" opacity="1.000000" stroke="none" 
	d="
M226.925446,221.357361 
	C227.284805,221.018585 227.572525,221.000214 228.073944,220.933533 
	C227.582458,224.318741 228.427383,227.329788 231.265289,229.311691 
	C233.935379,231.176437 236.851959,231.199402 239.410934,228.798080 
	C240.377838,227.890778 241.503769,227.620056 242.595245,228.231277 
	C243.886429,228.954330 244.102707,230.306747 243.975586,231.697144 
	C243.945557,232.025513 243.966202,232.397964 243.817169,232.669952 
	C242.066452,235.865204 244.796127,240.427902 242.084122,242.580521 
	C239.553055,244.589539 235.763641,241.850021 232.414078,241.979218 
	C226.817062,242.195114 225.817947,243.543640 228.171524,248.571014 
	C229.457413,251.317749 229.928864,253.991806 227.310989,256.187378 
	C224.925491,258.188049 222.284744,258.752655 219.725784,256.448669 
	C217.190582,254.166061 216.822693,251.442520 218.280060,248.362259 
	C220.740570,243.161819 220.062927,242.115219 214.321426,242.052750 
	C213.324463,242.041901 212.321899,242.023972 211.330658,242.109863 
	C208.959869,242.315292 205.627121,244.601471 204.449173,242.168030 
	C202.693237,238.540588 202.187851,234.047318 203.253128,229.988281 
	C203.777542,227.990128 206.268097,228.833984 207.878830,229.422043 
	C213.461304,231.460129 216.421982,230.452286 219.053131,225.234024 
	C221.737808,223.869522 224.296783,222.788803 226.925446,221.357361 
z"/>
<path fill="#E05241" opacity="1.000000" stroke="none" 
	d="
M258.830994,184.947296 
	C261.590302,183.648682 265.146912,187.644073 267.574158,183.246429 
	C269.766663,190.352203 272.878174,191.937347 279.564362,188.774078 
	C282.673187,187.303299 284.069855,188.339310 283.960571,191.470734 
	C283.845764,194.761475 283.363373,198.041672 282.986938,201.320206 
	C282.720154,203.643555 280.859100,203.154114 279.542694,202.903549 
	C276.930176,202.406326 274.352722,201.913284 271.670227,202.066177 
	C267.001862,202.332260 266.049133,203.739594 267.994141,207.964279 
	C269.309937,210.822189 270.131592,213.559372 267.393005,216.029434 
	C265.252655,217.959961 262.915680,218.906876 260.307617,216.830246 
	C257.050049,214.236404 256.638306,211.165466 258.988770,207.359070 
	C259.760773,206.009384 259.455902,204.891953 259.256531,203.540390 
	C258.933929,203.155228 258.807404,203.035950 258.427429,202.855133 
	C255.350418,202.170044 252.495712,202.593140 249.324219,202.744324 
	C248.817993,202.969345 248.642761,202.990067 248.215912,203.092972 
	C244.427124,204.106598 242.495834,203.149094 242.913055,199.090240 
	C243.166428,196.625305 242.219040,194.188980 242.518738,191.701248 
	C242.786713,189.477036 243.119965,187.300690 246.604248,187.788269 
	C247.013474,188.006912 246.985184,188.005112 246.983154,187.991074 
	C252.364990,191.255600 254.502594,190.804306 258.425446,185.429596 
	C258.706055,185.239014 258.758453,185.028168 258.830994,184.947296 
z"/>
<path fill="#F0F0F0" opacity="1.000000" stroke="none" 
	d="
M186.609619,306.977478 
	C183.343765,307.665070 182.250381,306.360443 182.307709,303.584381 
	C182.378860,300.137573 182.324753,296.688110 182.324753,292.071930 
	C179.252197,295.723083 178.601013,299.146362 177.313644,302.241119 
	C176.472351,304.263519 175.728409,306.591705 173.278992,306.795105 
	C170.891190,306.993439 170.152069,304.603607 169.248764,302.901550 
	C167.712753,300.007294 166.375336,297.007690 164.017212,294.093414 
	C163.831619,297.396820 163.580185,300.698303 163.483047,304.004303 
	C163.415863,306.290802 162.511795,307.140045 160.123917,307.105255 
	C157.507080,307.067078 157.698792,305.560669 157.735092,303.830719 
	C157.913116,295.348633 158.031570,286.865204 158.245667,278.384125 
	C158.288971,276.668243 157.823303,274.500092 160.574951,274.207581 
	C162.761597,273.975067 163.928864,275.110504 164.689575,277.028809 
	C167.177078,283.301849 169.726486,289.550354 172.631760,296.748993 
	C176.088638,290.975677 177.467270,285.355255 179.615280,280.082001 
	C180.242157,278.543091 180.725021,276.941650 181.413910,275.432831 
	C182.213181,273.682251 183.870270,274.064697 185.341187,274.084717 
	C186.562820,274.101349 187.102005,274.758606 187.126526,275.957184 
	C187.333832,286.090240 187.557434,296.222992 187.736679,306.356537 
	C187.739929,306.538940 187.256775,306.730011 186.609619,306.977478 
z"/>
<path fill="#F0F0F0" opacity="1.000000" stroke="none" 
	d="
M96.626091,301.232910 
	C92.994850,294.624237 93.428848,288.034241 95.394958,281.541870 
	C96.533669,277.781708 98.976715,274.523346 103.269814,274.070251 
	C108.790970,273.487579 114.320847,273.598358 118.519585,278.200409 
	C119.735855,279.533508 119.564972,280.995728 118.538307,282.277832 
	C117.442123,283.646759 115.978508,283.808289 114.571861,282.731384 
	C110.714340,279.778168 106.662888,278.038940 102.502762,281.877136 
	C99.027855,285.083191 98.862015,292.312683 101.767578,297.318817 
	C103.214920,299.812531 105.284904,301.272522 108.277382,301.097504 
	C110.792862,300.950378 112.743607,299.854889 113.813057,297.507446 
	C114.280487,296.481445 115.135315,295.261749 114.379761,294.258453 
	C113.591827,293.212189 112.232086,293.617584 111.152740,294.117340 
	C110.047249,294.629242 108.943687,294.826538 107.768059,294.513458 
	C106.140343,294.080048 105.067261,293.127808 105.302711,291.325531 
	C105.511879,289.724487 105.499313,287.862061 107.977882,287.941711 
	C110.135635,288.011078 112.297508,287.941010 114.457344,287.958954 
	C121.479240,288.017242 122.320412,289.072418 121.121727,295.848175 
	C120.113441,301.547638 116.653481,305.193542 111.299904,306.573578 
	C105.601807,308.042450 100.363129,306.930145 96.626091,301.232910 
z"/>
<path fill="#F0F0F0" opacity="1.000000" stroke="none" 
	d="
M375.441010,294.629456 
	C370.983917,293.303101 369.540100,294.994110 369.966736,298.971497 
	C370.160919,300.781647 369.984833,302.629456 370.019745,304.459351 
	C370.057068,306.417664 369.020447,307.056763 367.200226,307.021667 
	C365.572876,306.990265 364.111450,306.859436 364.127686,304.743347 
	C364.200409,295.260925 364.280243,285.778534 364.395142,276.296570 
	C364.419800,274.262268 365.874664,273.963837 367.509644,273.985046 
	C371.335602,274.034668 375.191833,273.785248 378.981384,274.179504 
	C386.387848,274.949951 390.326630,283.614929 385.342896,289.052856 
	C382.097870,292.593597 382.740417,295.231598 384.553070,298.603607 
	C385.259491,299.917755 385.947479,301.278229 386.367737,302.699280 
	C386.766876,304.049072 389.044861,305.789337 386.573608,306.806885 
	C384.710938,307.573822 382.398346,307.556732 381.071747,304.937836 
	C379.359863,301.558350 378.362518,297.797882 375.441010,294.629456 
z"/>
<path fill="#F0F0F0" opacity="1.000000" stroke="none" 
	d="
M232.787628,279.359924 
	C230.078705,279.566956 227.921646,280.273743 227.727371,282.929382 
	C227.520660,285.755280 230.075897,286.255341 232.023178,287.034332 
	C234.020691,287.833344 236.161667,288.278473 238.146942,289.102356 
	C242.284683,290.819489 244.325226,294.037262 244.176422,298.502014 
	C244.034515,302.760132 241.380997,305.198578 237.607941,306.320190 
	C232.166748,307.937714 227.072739,307.098877 222.641129,303.314453 
	C221.146423,302.038025 220.631500,300.702881 222.235901,299.111298 
	C223.520203,297.837280 224.833466,296.957611 226.443207,298.569366 
	C228.030014,300.158173 229.965729,301.154114 232.117462,301.513397 
	C234.651627,301.936523 236.970551,301.057495 237.823853,298.561340 
	C238.708420,295.973755 236.396164,295.179230 234.543213,294.429230 
	C232.385193,293.555725 230.195831,292.751190 227.989563,292.007172 
	C223.919754,290.634766 221.500748,288.049988 221.645584,283.556854 
	C221.790192,279.070068 224.024490,275.785522 228.208252,274.484192 
	C232.673981,273.095123 237.096817,273.886047 241.090729,276.544434 
	C242.545349,277.512665 243.214630,278.631958 242.258972,280.283691 
	C241.311203,281.921814 240.065353,282.715393 238.144424,281.744995 
	C236.522369,280.925568 234.854324,280.197174 232.787628,279.359924 
z"/>
<path fill="#F0F0F0" opacity="1.000000" stroke="none" 
	d="
M312.517761,286.486328 
	C313.155792,286.885956 313.484955,286.962921 313.815765,286.970642 
	C322.957520,287.184296 323.029602,287.183258 323.048798,278.166382 
	C323.054047,275.702423 323.310822,273.856140 326.299683,273.783905 
	C329.511047,273.706360 328.999603,276.077789 329.002319,277.984070 
	C329.014252,286.309814 328.975739,294.635742 328.919281,302.961365 
	C328.906982,304.774628 329.115387,306.884827 326.394196,306.952850 
	C323.575317,307.023254 323.908478,304.881134 323.847717,303.072327 
	C323.786224,301.241455 323.653534,299.407074 323.712067,297.579315 
	C323.821747,294.154999 322.699921,292.712646 318.845612,292.916168 
	C312.122711,293.271179 312.302429,292.986969 311.900818,299.842621 
	C311.753479,302.358185 313.813110,306.876587 308.993164,306.808746 
	C304.759705,306.749176 306.364136,302.473785 306.262146,300.037018 
	C305.955902,292.722137 306.068451,285.388611 306.075287,278.062439 
	C306.077087,276.124329 305.693054,273.898590 308.902771,273.962189 
	C312.006165,274.023712 311.652771,276.224060 311.783630,278.156097 
	C311.963470,280.811920 312.071075,283.472687 312.517761,286.486328 
z"/>
<path fill="#F3F3F3" opacity="1.000000" stroke="none" 
	d="
M203.297516,280.016479 
	C199.473129,281.409882 201.087326,284.357574 201.197571,286.432129 
	C201.332047,288.962402 203.833328,287.324402 205.242844,287.611206 
	C206.854492,287.939148 208.553741,287.998169 210.204758,287.929565 
	C212.225632,287.845612 212.771439,288.787598 212.788040,290.625946 
	C212.806198,292.635986 211.784546,293.252289 210.011871,293.240204 
	C208.514526,293.229980 206.984390,293.466278 205.525757,293.234619 
	C201.815079,292.645416 200.618149,294.013702 200.786606,297.778290 
	C200.917480,300.703369 201.474899,302.056122 204.672043,301.675873 
	C206.969193,301.402679 209.324951,301.624237 211.654556,301.621033 
	C214.023956,301.617798 215.617096,302.746307 215.586395,305.138916 
	C215.552383,307.790924 213.278030,306.957428 211.793839,306.993683 
	C207.802261,307.091156 203.803406,306.935638 199.814346,307.076508 
	C196.658493,307.187988 195.220642,305.947845 195.278870,302.714813 
	C195.434647,294.065521 195.519058,285.413940 195.515518,276.763336 
	C195.514633,274.608398 196.238373,273.882568 198.414291,273.940704 
	C203.402863,274.073944 208.399307,274.035736 213.389542,273.928070 
	C215.621475,273.879913 216.317657,274.888519 216.211563,276.930389 
	C216.111282,278.860535 215.457886,280.059692 213.255356,280.006317 
	C210.095520,279.929718 206.932480,279.986023 203.297516,280.016479 
z"/>
<path fill="#F0F0F0" opacity="1.000000" stroke="none" 
	d="
M145.333130,302.404266 
	C141.647141,299.820923 137.819748,301.418640 134.157608,301.154449 
	C132.454987,301.031647 132.403900,302.932434 132.045898,304.111633 
	C131.163300,307.018860 128.926224,307.712646 126.590569,306.851990 
	C123.866768,305.848297 125.909370,303.736115 126.382118,302.309540 
	C129.093689,294.127045 131.975494,286.000763 134.820023,277.862579 
	C135.472092,275.996979 135.923599,273.996490 138.614624,273.963196 
	C141.207245,273.931183 141.362610,275.986847 141.993744,277.591492 
	C145.208130,285.763977 148.446136,293.929352 151.463379,302.174988 
	C151.962723,303.539581 154.197556,305.593140 151.501068,306.770111 
	C149.128448,307.805725 146.935760,307.050140 146.127441,304.138367 
	C145.996231,303.665680 145.726608,303.231445 145.333130,302.404266 
z"/>
<path fill="#F3F3F3" opacity="1.000000" stroke="none" 
	d="
M403.609070,287.642639 
	C405.896240,287.751282 407.721191,287.934814 409.546570,287.939423 
	C411.216644,287.943634 411.350159,288.999908 411.430847,290.236145 
	C411.523743,291.660278 411.477631,293.019135 409.627350,293.155914 
	C407.973083,293.278198 406.279755,293.448303 404.651733,293.233246 
	C400.795044,292.723755 399.390747,294.070251 399.607727,298.100891 
	C399.763672,300.997131 400.624817,301.893402 403.377411,301.660675 
	C405.688538,301.465393 408.028625,301.627716 410.355499,301.600067 
	C412.737274,301.571716 414.290283,302.659637 414.292297,305.079010 
	C414.294495,307.752136 412.058014,306.954498 410.576965,306.994446 
	C406.757050,307.097473 402.927002,306.925751 399.112823,307.109406 
	C395.591919,307.278961 393.924622,306.133118 394.034119,302.303497 
	C394.271576,293.998291 394.272766,285.683411 394.199707,277.373962 
	C394.177307,274.829163 394.902069,273.816254 397.584351,273.923187 
	C402.231049,274.108490 406.891602,274.012512 411.544830,273.940094 
	C413.642029,273.907471 415.047882,274.227173 415.001678,276.868134 
	C414.958557,279.330780 413.790466,280.032745 411.602600,279.989380 
	C408.778015,279.933380 405.935455,280.172394 403.129944,279.936096 
	C400.317474,279.699219 399.793701,281.013031 399.843567,283.415070 
	C399.892578,285.775726 399.352051,288.320343 403.609070,287.642639 
z"/>
<path fill="#F3F3F3" opacity="1.000000" stroke="none" 
	d="
M279.162231,288.009979 
	C279.547668,283.094208 277.268097,277.179291 280.318115,274.665375 
	C282.933655,272.509613 288.606903,274.059296 292.928101,273.979889 
	C294.260284,273.955383 295.596130,274.016998 296.924896,273.942535 
	C298.940979,273.829437 300.107544,274.493958 299.990906,276.743256 
	C299.893433,278.622681 299.404083,279.991638 297.151520,279.968140 
	C294.153809,279.936859 291.135895,280.203064 288.162109,279.940308 
	C284.765320,279.640259 284.988708,281.701447 284.842194,283.975403 
	C284.674866,286.573212 285.119537,288.095367 288.246368,287.675079 
	C289.866058,287.457397 291.565338,287.919678 293.225891,287.894348 
	C295.063629,287.866333 296.389679,287.994293 296.511353,290.423523 
	C296.654938,293.290985 294.879425,293.244110 292.976257,293.275391 
	C291.810608,293.294556 290.610931,293.461853 289.484406,293.251984 
	C285.222504,292.457947 284.533936,294.660217 284.605133,298.282257 
	C284.657806,300.962769 285.575531,301.785370 288.095398,301.650513 
	C290.752441,301.508301 293.428619,301.538696 296.087433,301.672607 
	C298.271393,301.782593 299.459351,303.174316 299.323029,305.311462 
	C299.175873,307.618256 297.223480,306.973816 295.858704,307.000366 
	C291.862274,307.078186 287.856415,306.903229 283.868134,307.103699 
	C280.068512,307.294739 278.877441,305.550537 279.035858,301.995544 
	C279.235931,297.506531 279.127380,293.003815 279.162231,288.009979 
z"/>
<path fill="#F3F3F3" opacity="1.000000" stroke="none" 
	d="
M337.415466,305.346680 
	C337.222809,295.630219 337.295380,286.322449 337.194244,277.016571 
	C337.167938,274.596466 337.994904,273.854492 340.370056,273.930328 
	C345.187408,274.084045 350.014160,274.014069 354.835480,273.937317 
	C356.796021,273.906097 358.035797,274.364410 358.020355,276.643158 
	C358.005157,278.876984 357.147186,280.070923 354.779419,280.010834 
	C352.286652,279.947601 349.764038,280.222504 347.303375,279.933319 
	C343.777771,279.519073 342.631073,280.856445 342.772247,284.318787 
	C342.871643,286.755707 343.205536,287.997772 346.049530,287.647614 
	C347.996399,287.407898 350.028198,287.963745 352.013733,287.900940 
	C353.759979,287.845703 354.343628,288.548553 354.441071,290.182953 
	C354.545319,291.931427 354.181946,293.180725 352.166870,293.245422 
	C350.671631,293.293396 349.126648,293.511688 347.686066,293.231445 
	C342.473358,292.217438 342.589020,295.505646 342.625977,299.054138 
	C342.646851,301.056183 343.462646,301.672180 345.311951,301.630188 
	C348.137085,301.566040 350.965210,301.624420 353.791962,301.645111 
	C356.017242,301.661438 357.259888,302.894501 357.306122,305.017242 
	C357.365875,307.760681 355.108002,307.118744 353.661285,306.969696 
	C348.321564,306.419617 342.774841,308.554657 337.415466,305.346680 
z"/>
<path fill="#F3F3F3" opacity="1.000000" stroke="none" 
	d="
M256.687439,301.768311 
	C256.378021,304.225616 258.008362,307.260651 253.844604,307.119843 
	C250.025818,306.990753 250.928223,304.193878 250.882492,302.059753 
	C250.711426,294.078369 250.733856,286.092438 250.516846,278.112732 
	C250.431641,274.979034 251.359619,273.578522 254.758499,273.915192 
	C258.221069,274.258179 261.762787,273.834808 265.217407,274.218781 
	C270.751373,274.833862 273.332642,278.074921 273.268036,283.678528 
	C273.202698,289.346313 270.114319,292.891602 264.726746,293.475830 
	C264.396851,293.511627 264.061188,293.490906 263.729736,293.516479 
	C256.501923,294.073761 256.501953,294.074310 256.687439,301.768311 
z"/>
<path fill="#DB4049" opacity="1.000000" stroke="none" 
	d="
M261.397766,238.383087 
	C265.509644,238.931503 264.320038,235.851120 264.461700,234.233902 
	C264.591187,232.755814 263.039001,230.704056 265.568878,230.289093 
	C267.565247,229.961655 268.018372,232.134476 268.706024,233.587723 
	C269.334717,234.916382 268.615601,237.999786 271.789764,235.801163 
	C274.609009,233.848419 276.409698,235.738998 277.155487,237.940964 
	C278.257843,241.195694 274.746643,239.270264 273.790619,240.378998 
	C273.580139,240.623093 273.379272,240.875412 273.073975,241.460449 
	C270.745392,243.904480 269.093872,246.168549 269.708160,249.565125 
	C270.265228,252.645386 268.546600,253.722794 265.916077,252.516891 
	C263.075439,251.214691 260.467865,249.399628 257.775940,247.779510 
	C256.217346,246.841461 256.603790,245.544266 257.333191,244.338699 
	C258.527313,242.365036 259.821442,240.451874 261.397766,238.383087 
z"/>
<path fill="#DB4049" opacity="1.000000" stroke="none" 
	d="
M283.213959,246.387405 
	C284.982300,252.031754 289.719513,251.968613 294.855591,251.878265 
	C294.617859,253.396973 294.263458,254.692963 293.634094,255.837769 
	C292.239319,258.374786 292.395844,262.979553 289.515930,263.183289 
	C285.539398,263.464600 281.695679,260.808868 278.236023,258.573883 
	C275.840210,257.026154 277.206970,255.388168 279.071960,254.487595 
	C282.385437,252.887619 283.510590,250.269470 283.213959,246.387405 
z"/>
<path fill="#F4BE1E" opacity="1.000000" stroke="none" 
	d="
M242.618515,179.853851 
	C240.839584,182.001999 238.757477,182.035034 237.013153,180.224823 
	C235.750656,178.914627 234.739456,177.958633 232.821991,178.843063 
	C232.084900,179.183029 230.999878,179.105148 230.572800,178.310196 
	C230.033112,177.305588 230.679474,175.918686 231.427902,175.733307 
	C235.334915,174.765503 233.516190,173.093979 232.290054,171.188095 
	C231.426865,169.846390 232.773972,167.217392 229.488129,167.012573 
	C228.430725,159.425781 233.648224,164.111877 236.668976,163.743195 
	C241.041962,164.235962 242.640976,165.973053 241.589096,170.258759 
	C240.985413,172.718231 241.156921,175.465958 241.967331,178.407928 
	C242.254150,179.003860 242.367432,179.242859 242.618515,179.853851 
z"/>
<path fill="#A73F50" opacity="1.000000" stroke="none" 
	d="
M247.173981,331.938293 
	C249.675369,335.137360 248.738724,338.750122 248.377213,342.051239 
	C248.032852,345.195709 245.978363,343.899872 244.580170,342.421295 
	C242.852081,340.593872 241.160828,337.649506 239.968491,342.766418 
	C239.797226,343.501343 239.029053,343.886139 238.421219,343.611816 
	C237.928925,343.389679 237.376358,342.664490 237.355255,342.141998 
	C237.248016,339.488342 237.230240,336.824585 237.353760,334.172394 
	C237.387772,333.442078 237.833405,332.459412 238.410065,332.084259 
	C239.507477,331.370178 240.337738,332.397430 240.821945,333.178589 
	C244.036713,338.364960 245.426407,335.164001 247.173981,331.938293 
z"/>
<path fill="#A73F50" opacity="1.000000" stroke="none" 
	d="
M254.307312,342.627563 
	C252.172241,339.497528 251.587830,336.389313 254.037918,333.718048 
	C256.140015,331.426270 259.090942,331.538208 261.904785,332.554077 
	C262.802460,332.878174 263.966003,333.371552 263.589386,334.589508 
	C263.181610,335.908112 262.031982,335.492004 261.119629,335.093384 
	C259.679962,334.464417 258.261841,334.171082 256.896149,335.183289 
	C256.058258,335.804352 255.431931,336.696350 255.989670,337.710968 
	C256.486084,338.614075 257.324097,338.312592 258.078583,337.802307 
	C260.021973,336.488007 262.220062,336.161163 263.980927,337.708099 
	C265.127899,338.715729 264.845123,340.592407 263.948425,341.864166 
	C262.474182,343.955048 260.284241,344.632965 257.814087,344.077026 
	C256.705292,343.827484 255.665695,343.270386 254.307312,342.627563 
z"/>
<path fill="#A73F50" opacity="1.000000" stroke="none" 
	d="
M313.929718,344.332886 
	C307.382446,344.889160 309.501160,340.301544 309.154663,337.274811 
	C308.744080,333.688354 309.243591,331.163422 313.993774,331.596954 
	C319.189667,332.071136 319.946289,332.914398 320.248260,339.881073 
	C320.448608,344.503418 317.363434,344.268250 313.929718,344.332886 
z"/>
<path fill="#A73F50" opacity="1.000000" stroke="none" 
	d="
M300.515198,340.406982 
	C301.979675,338.070160 301.389313,335.849060 301.617065,333.727600 
	C301.705170,332.906677 301.896332,331.991730 302.946960,331.951752 
	C303.317047,331.937653 303.833862,332.341461 304.067169,332.696625 
	C306.670013,336.658844 303.591522,343.913025 299.144684,344.144348 
	C296.795166,344.266571 294.355103,343.962006 293.013458,341.633728 
	C291.528839,339.057312 291.504852,336.246582 292.273926,333.415588 
	C292.472870,332.683289 293.064697,332.160583 293.707214,332.369324 
	C295.130737,332.831787 294.910706,334.183838 294.936035,335.316284 
	C295.013336,338.773376 294.762390,342.513428 300.515198,340.406982 
z"/>
<path fill="#A73F50" opacity="1.000000" stroke="none" 
	d="
M226.051819,342.792603 
	C225.063477,343.819702 224.490967,344.344971 223.361450,343.331635 
	C219.853271,340.184418 216.820572,340.473419 213.918579,344.724091 
	C212.484772,340.638916 212.621048,336.955963 213.230148,333.368927 
	C213.549698,331.487061 214.456894,331.703156 217.053070,334.718292 
	C218.351562,336.071106 219.610931,336.098267 221.290405,335.604309 
	C225.113937,335.891022 224.989822,338.972321 226.085968,341.565613 
	C226.270370,342.120392 226.305725,342.354034 226.051819,342.792603 
z"/>
<path fill="#A73F50" opacity="1.000000" stroke="none" 
	d="
M283.565369,336.785950 
	C285.580780,335.567017 284.245544,333.459106 285.435699,332.182495 
	C288.016632,334.400513 288.350372,339.228851 286.150146,343.791077 
	C283.950134,342.942474 285.867401,338.593597 281.791016,339.033691 
	C278.426361,339.396912 280.051178,342.635773 277.478516,344.075470 
	C276.472870,339.796539 276.239929,335.911591 277.458038,331.397095 
	C279.977020,333.142822 278.368011,338.547485 283.565369,336.785950 
z"/>
<path fill="#A73F50" opacity="1.000000" stroke="none" 
	d="
M200.774246,333.237732 
	C201.236237,332.834198 201.500381,332.627838 201.896820,332.206604 
	C202.404404,331.653259 202.837646,331.517212 203.571564,331.894043 
	C203.804779,332.171173 203.904572,332.045502 203.873428,332.119446 
	C205.474152,333.211212 205.852417,335.015808 206.694855,336.905090 
	C207.475571,339.014771 208.161865,340.807678 209.525894,344.371002 
	C204.472488,340.460266 200.512329,340.088196 196.625488,343.860474 
	C194.647827,342.679779 195.675247,341.661163 196.750854,340.356384 
	C197.031189,340.084015 197.081223,340.053497 197.077820,340.024384 
	C197.440994,339.563904 197.501785,339.017822 197.825958,338.306702 
	C198.016174,338.114166 198.115631,338.069366 198.109802,338.015137 
	C198.231720,337.815918 198.359482,337.670898 198.626892,337.271820 
	C199.112610,336.528595 199.458679,336.039398 199.851318,335.243530 
	C199.983063,334.372467 200.197556,333.866577 200.774246,333.237732 
z"/>
<path fill="#A73F50" opacity="1.000000" stroke="none" 
	d="
M183.900696,332.305786 
	C184.621262,332.105682 185.028442,332.051971 185.735443,331.925659 
	C187.607101,331.136108 189.015900,331.618225 190.676788,332.683167 
	C191.210709,333.165833 191.445892,333.408813 191.850189,333.840790 
	C192.127579,334.196136 192.235855,334.362518 192.130508,334.736267 
	C191.916885,334.943665 191.998032,334.970947 191.957214,334.951294 
	C190.745819,336.398224 189.242874,335.564331 187.823853,335.599182 
	C184.645569,335.677246 183.797089,337.137634 185.766708,339.950439 
	C185.589783,338.341431 185.221130,336.602600 187.381470,336.128876 
	C189.015869,335.770508 190.866562,335.577911 191.998459,336.923767 
	C193.507721,338.718262 193.656815,340.789154 191.398453,342.764130 
	C191.124268,342.970032 190.999542,342.961700 190.972534,343.018066 
	C190.551483,343.472198 190.118958,343.806641 189.275818,343.928833 
	C188.556488,343.963623 188.114044,343.990692 187.346481,344.089111 
	C186.289368,344.625610 185.520035,344.740692 184.417480,344.116089 
	C183.851898,343.608765 183.571777,343.393005 183.034393,343.101257 
	C182.351242,342.549805 181.841934,342.154816 181.251221,341.396790 
	C181.027496,340.935669 181.001297,340.725586 180.880005,340.212463 
	C180.451370,338.542358 180.280045,337.164307 180.733292,335.406189 
	C180.962646,335.052887 181.060364,335.027008 181.055557,334.976685 
	C181.192764,334.797119 181.334763,334.667847 181.600006,334.278198 
	C182.030396,333.776337 182.337540,333.534851 182.826935,333.062683 
	C183.201889,332.705353 183.394608,332.578766 183.900696,332.305786 
z"/>
<path fill="#171717" opacity="1.000000" stroke="none" 
	d="
M191.497040,342.986084 
	C192.161423,341.339203 192.816696,339.346375 191.702957,337.833649 
	C190.524246,336.232666 188.527420,336.715485 186.880753,337.492615 
	C186.288666,339.835724 190.576431,338.198364 189.356461,340.707520 
	C188.690720,342.076752 187.135178,342.128235 185.821777,341.712769 
	C184.079254,341.161530 183.093292,339.881897 183.144669,337.976196 
	C183.201202,335.878296 184.249008,334.363342 186.341934,334.245728 
	C187.923935,334.156799 189.543945,334.743744 191.531723,334.980743 
	C193.730988,336.326904 193.196167,339.744598 196.667114,340.055725 
	C196.770477,341.125000 196.509766,342.166016 196.263962,343.531616 
	C194.809189,343.571533 193.339493,343.286865 191.497040,342.986084 
z"/>
<path fill="#171717" opacity="1.000000" stroke="none" 
	d="
M246.794006,187.686478 
	C244.298920,187.689667 242.828201,188.882965 243.016846,191.628387 
	C243.242081,194.906494 243.648178,198.173676 244.034729,201.438629 
	C244.272781,203.449295 245.964157,202.759552 247.554214,203.087555 
	C246.705627,204.387634 245.108704,203.864578 243.256897,204.032990 
	C238.743362,204.050674 234.734848,205.291534 230.552322,205.018845 
	C227.119690,204.795029 226.094009,203.456406 227.695053,200.169861 
	C229.699966,201.983780 231.620819,203.382507 234.748810,202.188782 
	C237.197067,201.019089 240.839447,204.061081 241.819321,199.322083 
	C241.957367,196.407242 242.122253,193.819336 242.016846,191.242462 
	C241.879272,187.879013 243.029251,186.278854 246.794006,187.686478 
z"/>
<path fill="#171717" opacity="1.000000" stroke="none" 
	d="
M242.966400,180.405090 
	C242.562973,180.197174 242.369598,180.168488 242.028748,180.393250 
	C240.390335,175.296997 240.493683,170.000595 242.671417,164.395752 
	C243.124039,164.021179 243.317581,164.015747 243.801285,164.024811 
	C244.316757,167.661545 242.608292,171.041107 242.915756,174.724655 
	C243.217041,178.333878 243.846436,180.383789 247.885071,177.738037 
	C250.514496,176.015457 253.307449,175.751968 255.870682,178.650696 
	C251.262314,175.860336 247.446396,180.026825 242.966400,180.405090 
z"/>
<path fill="#EBB22B" opacity="1.000000" stroke="none" 
	d="
M242.508072,164.003296 
	C242.471176,169.357605 241.117477,174.668427 242.225250,180.344635 
	C238.630432,177.045319 239.650452,172.638351 240.457870,168.777084 
	C241.149323,165.470322 239.648804,165.103500 237.241516,164.239441 
	C238.700333,163.964813 240.392990,163.972397 242.508072,164.003296 
z"/>
<path fill="#A73F50" opacity="1.000000" stroke="none" 
	d="
M231.109329,332.515656 
	C233.971481,332.076050 233.347275,334.268402 233.283585,335.566284 
	C233.151489,338.259003 234.064941,341.118195 231.834473,344.619965 
	C230.078094,340.230591 230.986862,336.442017 231.109329,332.515656 
z"/>
<path fill="#DB4049" opacity="1.000000" stroke="none" 
	d="
M225.921783,341.744446 
	C222.910126,340.987183 225.087982,337.074982 221.784790,336.188690 
	C221.282333,335.934692 221.034500,335.881409 221.058685,335.562378 
	C221.330688,335.296661 221.322144,335.242798 221.295868,335.235535 
	C221.266251,334.880219 221.391724,334.591827 221.864990,334.221375 
	C223.151016,333.669525 223.484192,331.536102 225.470596,332.839722 
	C227.336670,335.725494 226.203705,338.674225 225.921783,341.744446 
z"/>
<path fill="#E46F33" opacity="1.000000" stroke="none" 
	d="
M215.128799,217.390045 
	C217.397903,211.941864 218.959244,218.572556 221.200378,217.688889 
	C220.362473,218.414795 219.524582,219.140701 218.384415,219.927750 
	C217.852661,218.355026 216.069839,218.610535 215.128799,217.390045 
z"/>
<path fill="#171717" opacity="1.000000" stroke="none" 
	d="
M225.555511,342.223633 
	C225.529495,339.276184 225.576370,336.585663 225.659241,333.444244 
	C228.044434,335.997833 226.943695,339.267334 226.093719,342.744812 
	C225.717819,342.825165 225.673111,342.652863 225.555511,342.223633 
z"/>
<path fill="#171717" opacity="1.000000" stroke="none" 
	d="
M249.447662,202.975037 
	C251.724701,201.098892 254.699448,202.190155 257.880920,202.515625 
	C255.416672,202.862885 252.659378,202.932159 249.447662,202.975037 
z"/>
<path fill="#171717" opacity="1.000000" stroke="none" 
	d="
M206.843231,336.840210 
	C205.205444,336.174011 204.810867,334.362854 203.908127,332.514465 
	C206.641357,332.339630 206.699982,334.448700 206.843231,336.840210 
z"/>
<path fill="#171717" opacity="1.000000" stroke="none" 
	d="
M180.660156,335.066772 
	C180.930725,336.404541 180.898788,337.756165 180.825897,339.508606 
	C181.397873,338.233002 176.293350,337.062469 180.660156,335.066772 
z"/>
<path fill="#171717" opacity="1.000000" stroke="none" 
	d="
M220.927704,335.213806 
	C221.330688,335.296661 221.474106,335.629456 221.502136,335.808716 
	C220.061081,337.283905 218.658585,337.753662 217.374725,335.326294 
	C218.366058,335.038635 219.445389,335.084778 220.927704,335.213806 
z"/>
<path fill="#171717" opacity="1.000000" stroke="none" 
	d="
M190.907074,332.585327 
	C189.565430,332.618713 188.155304,332.314575 186.390228,331.931763 
	C187.736557,330.765808 189.381790,330.360657 190.907074,332.585327 
z"/>
<path fill="#171717" opacity="1.000000" stroke="none" 
	d="
M184.139603,344.158630 
	C184.856979,343.887939 185.581924,343.951355 186.664124,344.087646 
	C186.291870,346.248016 185.354187,346.535065 184.139603,344.158630 
z"/>
<path fill="#DB4049" opacity="1.000000" stroke="none" 
	d="
M296.330292,251.061798 
	C296.753021,249.658539 298.041382,249.952057 299.543365,250.179962 
	C298.751801,250.504837 297.703430,250.755249 296.330292,251.061798 
z"/>
<path fill="#171717" opacity="1.000000" stroke="none" 
	d="
M200.695282,333.061707 
	C200.784119,333.578430 200.596146,334.116272 200.153015,334.795471 
	C198.903854,333.990967 199.310486,333.438446 200.695282,333.061707 
z"/>
<path fill="#171717" opacity="1.000000" stroke="none" 
	d="
M189.161469,344.159546 
	C189.461563,343.648682 189.924179,343.360809 190.666168,343.073669 
	C190.800446,344.000641 190.740021,345.031769 189.161469,344.159546 
z"/>
<path fill="#171717" opacity="1.000000" stroke="none" 
	d="
M259.027832,203.647476 
	C260.538025,204.178986 259.942841,205.434372 259.371887,206.834183 
	C259.073944,206.024475 259.034576,205.022461 259.027832,203.647476 
z"/>
<path fill="#DB4049" opacity="1.000000" stroke="none" 
	d="
M302.336243,254.276398 
	C303.081665,254.091141 303.673645,254.375961 303.952515,255.403763 
	C303.089691,255.825409 302.619324,255.323334 302.336243,254.276398 
z"/>
<path fill="#171717" opacity="1.000000" stroke="none" 
	d="
M203.826767,331.869690 
	C203.409241,332.143219 203.013702,332.115265 202.323639,332.039490 
	C202.273102,331.493439 202.405106,330.710571 202.786179,330.560608 
	C203.429871,330.307281 203.753006,330.940216 203.826767,331.869690 
z"/>
<path fill="#171717" opacity="1.000000" stroke="none" 
	d="
M181.067474,341.434479 
	C181.564682,341.610077 182.075684,342.074432 182.681915,342.781982 
	C181.947342,342.935760 181.312622,342.592163 181.067474,341.434479 
z"/>
<path fill="#171717" opacity="1.000000" stroke="none" 
	d="
M197.766876,338.254425 
	C197.852768,338.632568 197.689362,339.150970 197.300201,339.832336 
	C197.222137,339.461731 197.369843,338.928223 197.766876,338.254425 
z"/>
<path fill="#171717" opacity="1.000000" stroke="none" 
	d="
M198.593521,337.125305 
	C198.786469,337.315979 198.690918,337.570862 198.291931,337.871643 
	C198.100143,337.670685 198.205658,337.427979 198.593521,337.125305 
z"/>
<path fill="#171717" opacity="1.000000" stroke="none" 
	d="
M183.969299,332.177704 
	C184.069183,332.477631 183.829041,332.685974 183.251404,332.808197 
	C183.160767,332.522308 183.399231,332.310333 183.969299,332.177704 
z"/>
<path fill="#171717" opacity="1.000000" stroke="none" 
	d="
M221.829834,334.179871 
	C221.955276,334.385742 221.846481,334.701019 221.503616,335.122253 
	C221.378235,334.915253 221.486908,334.602264 221.829834,334.179871 
z"/>
<path fill="#171717" opacity="1.000000" stroke="none" 
	d="
M192.094482,334.886902 
	C191.916885,334.943665 191.929901,334.482086 191.974609,334.255920 
	C192.177505,334.198761 192.349274,334.358246 192.480453,334.546051 
	C192.502121,334.577087 192.346024,334.732300 192.094482,334.886902 
z"/>
<path fill="#171717" opacity="1.000000" stroke="none" 
	d="
M181.558105,334.125031 
	C181.767441,334.321564 181.670898,334.570709 181.242203,334.845856 
	C181.077454,334.651917 181.191513,334.420532 181.558105,334.125031 
z"/>
<path fill="#DB4049" opacity="1.000000" stroke="none" 
	d="
M300.760162,251.262909 
	C300.845734,251.188553 300.924713,251.418198 300.972473,251.457184 
	C301.020233,251.496185 300.674591,251.337265 300.760162,251.262909 
z"/>
<path fill="#DB4049" opacity="1.000000" stroke="none" 
	d="
M282.642944,245.233093 
	C282.645721,245.151428 282.803986,245.279419 282.853943,245.281906 
	C282.903931,245.284393 282.640167,245.314758 282.642944,245.233093 
z"/>
<path fill="#E05241" opacity="1.000000" stroke="none" 
	d="
M277.553711,234.371399 
	C277.334259,233.595032 277.606323,233.314972 278.208435,233.434464 
	C278.333679,233.459320 278.502289,233.636292 278.521301,233.762680 
	C278.612854,234.371033 278.317352,234.626160 277.553711,234.371399 
z"/>
<path fill="#E05241" opacity="1.000000" stroke="none" 
	d="
M277.553528,224.373779 
	C277.333984,223.596375 277.606628,223.315811 278.209534,223.435043 
	C278.334900,223.459839 278.503754,223.637222 278.522827,223.763840 
	C278.614563,224.373306 278.318085,224.628433 277.553528,224.373779 
z"/>
<path fill="#F4BE1E" opacity="1.000000" stroke="none" 
	d="
M217.042709,168.053345 
	C214.295090,168.007248 213.516815,170.197540 213.783356,172.077621 
	C214.327744,175.917419 215.817581,179.509796 220.035934,180.816711 
	C221.409668,181.242310 222.966766,181.040359 224.392532,181.346497 
	C225.305099,181.542435 226.504684,181.911285 226.512238,183.090836 
	C226.521835,184.590210 225.242584,184.855972 224.049576,184.957397 
	C223.397110,185.012863 222.585785,185.136719 222.092819,184.831390 
	C217.223633,181.815430 212.057938,183.572845 206.987274,183.773773 
	C204.896271,183.856628 204.664597,182.514999 205.574829,181.220795 
	C207.616226,178.318298 207.092575,175.284760 206.561966,172.167343 
	C205.966721,168.670395 206.279892,165.663361 210.951492,166.007935 
	C213.003677,166.159271 216.278000,161.271072 217.047668,167.727203 
	C217.083054,168.102524 216.992722,168.019852 217.042709,168.053345 
z"/>
<path fill="#E89A30" opacity="1.000000" stroke="none" 
	d="
M241.664154,199.181396 
	C243.744751,201.289688 243.692963,202.847076 240.294144,203.054611 
	C238.983261,203.134659 237.669754,203.171844 235.955704,203.261993 
	C233.865753,203.024506 231.620377,204.794922 230.794342,201.497284 
	C233.571854,199.393311 236.334000,201.562149 239.083176,200.734024 
	C240.097061,200.428604 240.822525,200.161621 241.664154,199.181396 
z"/>
<path fill="#171717" opacity="1.000000" stroke="none" 
	d="
M258.359406,185.197433 
	C255.693771,191.159439 252.329315,192.140564 247.185608,188.257965 
	C251.475159,190.230606 255.219208,189.551620 258.359406,185.197433 
z"/>
<path fill="#E46F33" opacity="1.000000" stroke="none" 
	d="
M230.929199,200.701508 
	C231.337296,203.288467 233.162521,202.994217 235.135162,203.236664 
	C232.481079,204.149338 229.078430,206.024994 227.962296,200.437561 
	C228.846359,199.674622 228.168533,196.525467 230.623962,198.829865 
	C230.844528,199.452072 230.874161,199.906525 230.929199,200.701508 
z"/>
<path fill="#171717" opacity="1.000000" stroke="none" 
	d="
M224.552765,188.038116 
	C223.162628,189.342346 221.274628,190.246048 218.930573,189.361893 
	C218.878357,188.963867 218.948563,188.988739 218.956909,188.952454 
	C219.416260,188.460800 220.003540,188.386551 220.868393,188.208771 
	C222.150299,188.071838 223.161804,188.058426 224.552765,188.038116 
z"/>
<path fill="#E89A30" opacity="1.000000" stroke="none" 
	d="
M220.888107,187.976807 
	C220.876419,188.808350 220.295990,188.973633 219.288300,188.936157 
	C219.032013,187.783920 219.472839,187.248657 220.888107,187.976807 
z"/>
<path fill="#171717" opacity="1.000000" stroke="none" 
	d="
M216.972839,191.354294 
	C217.523697,191.136566 218.471756,190.788010 218.201370,191.843597 
	C218.044174,192.457260 218.392654,193.570740 216.919006,193.244568 
	C216.794525,192.538101 216.870117,192.110199 216.972839,191.354294 
z"/>
<path fill="#E89A30" opacity="1.000000" stroke="none" 
	d="
M239.537521,198.544342 
	C239.486023,198.573990 239.589020,198.514709 239.537521,198.544342 
z"/>
<path fill="#F4BE1E" opacity="1.000000" stroke="none" 
	d="
M202.471985,182.456802 
	C202.521881,182.428391 202.422073,182.485214 202.471985,182.456802 
z"/>
<path fill="#EBB22B" opacity="1.000000" stroke="none" 
	d="
M220.942200,196.451385 
	C221.755157,193.749588 221.884384,195.676453 222.230835,196.303162 
	C223.334473,198.299561 222.892136,199.975815 221.134613,201.676270 
	C219.208206,199.981613 220.603882,198.348343 220.942200,196.451385 
z"/>
<path fill="#EBB22B" opacity="1.000000" stroke="none" 
	d="
M212.285843,212.417694 
	C210.958374,212.934219 209.251572,213.548218 209.576248,211.437164 
	C209.782410,210.096725 211.252869,208.605499 212.773239,209.303131 
	C214.265656,209.987946 211.953888,211.075638 212.285843,212.417694 
z"/>
<path fill="#010000" opacity="1.000000" stroke="none" 
	d="
M211.325562,205.356735 
	C209.987976,204.844910 208.598465,205.264175 207.963684,203.410263 
	C210.468079,202.433350 212.674118,204.067734 214.917160,204.330154 
	C215.558121,204.405136 214.426102,204.704575 214.129990,204.913849 
	C214.013367,204.996277 213.806732,204.951340 213.303314,205.062897 
	C212.561462,205.427734 212.117599,205.551315 211.325562,205.356735 
z"/>
<path fill="#EBB22B" opacity="1.000000" stroke="none" 
	d="
M210.911499,205.427551 
	C211.451157,205.129013 211.885193,205.076904 212.642395,205.093079 
	C212.896515,206.032959 212.631363,206.802536 211.623077,206.886871 
	C210.745789,206.960236 210.475418,206.485443 210.911499,205.427551 
z"/>
<path fill="#E46F33" opacity="1.000000" stroke="none" 
	d="
M227.003204,220.997528 
	C226.887909,220.867889 226.769394,220.740707 226.650879,220.613541 
	C226.728943,220.659714 226.807022,220.705902 226.940109,220.879349 
	C226.995132,221.006622 227.000000,221.000000 227.003204,220.997528 
z"/>
<path fill="#171717" opacity="1.000000" stroke="none" 
	d="
M370.142548,286.904602 
	C370.117432,279.060944 370.514435,278.735077 377.523193,279.758209 
	C379.496643,280.046295 381.161255,280.741272 381.547791,282.792450 
	C381.958344,284.970886 380.934387,286.946106 378.913971,287.618439 
	C376.067230,288.565735 373.005402,289.552277 370.142548,286.904602 
z"/>
<path fill="#171717" opacity="1.000000" stroke="none" 
	d="
M135.789444,292.052399 
	C136.698151,289.709625 137.523148,287.750549 138.379730,285.716492 
	C139.991730,287.088989 140.501007,288.989319 141.221298,290.754272 
	C141.752457,292.055756 143.320358,293.942352 142.044495,294.675385 
	C140.148941,295.764435 137.607574,295.357819 135.394669,294.676331 
	C135.279327,294.640839 135.592209,293.214783 135.789444,292.052399 
z"/>
<path fill="#171717" opacity="1.000000" stroke="none" 
	d="
M258.282227,288.002686 
	C254.944275,285.520538 255.222778,281.396729 257.091400,279.954620 
	C259.384369,278.185028 263.499359,278.574829 266.309937,280.730347 
	C268.661377,282.533752 267.604767,286.468689 264.589020,287.304962 
	C262.712097,287.825439 260.681671,287.792297 258.282227,288.002686 
z"/>
<path fill="#010000" opacity="1.000000" stroke="none" 
	d="
M257.204224,340.726135 
	C256.709991,339.449951 256.966858,338.780121 258.078491,339.014099 
	C258.451019,339.092468 258.972412,339.539307 259.022400,339.877380 
	C259.187653,340.995392 258.442566,341.185059 257.204224,340.726135 
z"/>
<path fill="#171717" opacity="1.000000" stroke="none" 
	d="
M315.704285,341.926208 
	C314.042297,341.885590 312.458191,342.355988 312.118805,340.484192 
	C312.000824,339.833527 312.562378,339.224518 313.314301,339.149109 
	C314.777679,339.002319 316.496399,338.542572 317.465912,339.925720 
	C318.244873,341.037079 317.185150,341.651459 315.704285,341.926208 
z"/>
<path fill="#171717" opacity="1.000000" stroke="none" 
	d="
M313.285339,336.805054 
	C311.236694,334.885254 312.247040,334.209686 314.128723,334.067108 
	C315.243774,333.982635 316.791321,333.960236 316.718658,335.464691 
	C316.629883,337.301422 314.894653,336.816681 313.285339,336.805054 
z"/>
</svg>